# xmcd
#
# Track frame offsets:
#	182
#	10990
#	21660
#	33795
#	48222
#	58897
#	71115
#	84202
#	95040
#	107922
#	117795
#	127375
#	137620
#	149585
#	161077
#	174850
#	185060
#	198620
#	209892
#	223930
#	233737
#	246925
#	258047
#	266170
#	276845
#
# Disc length: 3844
#
# Revision: 2
# Processed by: cddbd v1.5.1PL0 Copyright (c) Steve Scherf et al.
# Submitted via: Grip 3.2.0
# Normalized: r1:DSETVAR2
#
DISCID=8d0f0219
DTITLE=Various Artist - Country giants Vol 1
DYEAR=1900
DGENRE=Country
TTITLE0=George Jones - Tender grass
TTITLE1=Dolly Parton - Honky Tonk angels
TTITLE2=Faron Young - Sweet dreams
TTITLE3=Patsi Cline - Then you'll know
TTITLE4=Billy Jo Spears - I'm so lonesome I could cry
TTITLE5=Willie Nelson - I can't find the time
TTITLE6=Kenny Rogers - Ruby, don't take your love to town
TTITLE7=Stonewall Jackson - Things to talk about
TTITLE8=Johnny Paycheck - Talk about me
TTITLE9=Willie Nelson - I didn't sleep a wink
TTITLE10=Ned Miller - From a Jack to a King
TTITLE11=Waylon Jennings - White Lightning
TTITLE12=Billy Jo Spears - Look what they've done to my song
TTITLE13=Dolly Parton - Makin' vbelieve
TTITLE14=Willie Nelson - Home is where you're happy
TTITLE15=Ferlin Huskey - Wings of a dove
TTITLE16=Kenny Rogers - Shine on Ruby mountains
TTITLE17=George Jones - I'm wasting good paper
TTITLE18=Georges Jones - A good year for the roses
TTITLE19=Patsy Cline - Turn the cards slowly
TTITLE20=B.J. Thomas - Raindrops
TTITLE21=Faron Young - Country girl
TTITLE22=Roger Miller - Dear heart
TTITLE23=Patsy Cline - The heart you break may be your own
TTITLE24=Roger miller - Little green apples
EXTD=
EXTT0=
EXTT1=
EXTT2=
EXTT3=
EXTT4=
EXTT5=
EXTT6=
EXTT7=
EXTT8=
EXTT9=
EXTT10=
EXTT11=
EXTT12=
EXTT13=
EXTT14=
EXTT15=
EXTT16=
EXTT17=
EXTT18=
EXTT19=
EXTT20=
EXTT21=
EXTT22=
EXTT23=
EXTT24=
PLAYORDER=
